<svg id="Layer_1" data-name="Layer 1" xmlns="http://www.w3.org/2000/svg" viewBox="0 0 53.5 53.1"><defs><style>.cls-1,.cls-2,.cls-4{fill:#a61e38;}.cls-2,.cls-4{stroke:#cbc8c9;}.cls-2,.cls-3,.cls-4{stroke-miterlimit:10;}.cls-2{stroke-width:3px;}.cls-3{fill:none;stroke:#a61e38;stroke-width:2px;}</style></defs><rect class="cls-1" x="7.3" y="7.08" width="38.85" height="38.85"/><polygon class="cls-2" points="41.39 41.18 32.92 41.18 12.05 41.18 12.05 11.84 41.39 11.84 41.39 41.18"/><line class="cls-3" x1="18.12" x2="18.12" y2="10.23"/><line class="cls-3" x1="25.81" x2="25.81" y2="10.23"/><line class="cls-3" x1="33.83" y1="0.06" x2="33.83" y2="10.3"/><line class="cls-3" x1="17.95" y1="42.8" x2="17.95" y2="53.03"/><line class="cls-3" x1="25.64" y1="42.87" x2="25.64" y2="53.1"/><line class="cls-3" x1="33.66" y1="42.83" x2="33.66" y2="53.07"/><line class="cls-4" x1="18.12" y1="11.84" x2="18.12" y2="24.3"/><line class="cls-4" x1="33.33" y1="28.72" x2="33.33" y2="41.18"/><line class="cls-4" x1="25.81" y1="28.72" x2="25.81" y2="41.18"/><circle class="cls-4" cx="18.12" cy="25.73" r="1.43"/><circle class="cls-4" cx="25.81" cy="27.69" r="1.43"/><circle class="cls-4" cx="33.33" cy="27.69" r="1.43"/><line class="cls-3" x1="43.27" y1="34.36" x2="53.5" y2="34.36"/><line class="cls-3" x1="43.27" y1="26.68" x2="53.5" y2="26.68"/><line class="cls-3" x1="43.27" y1="18.65" x2="53.5" y2="18.65"/><line class="cls-3" y1="34.11" x2="10.23" y2="34.11"/><line class="cls-3" y1="26.43" x2="10.23" y2="26.43"/><line class="cls-3" y1="18.4" x2="10.23" y2="18.4"/></svg>