<svg id="Layer_1" data-name="Layer 1" xmlns="http://www.w3.org/2000/svg" viewBox="0 0 50.34 41.54"><defs><style>.cls-1{fill:#a61e38;stroke-width:1.5px;}.cls-1,.cls-2{stroke:#cbc8c9;stroke-miterlimit:10;}.cls-2{fill:#fff;}</style></defs><path class="cls-1" d="M47.27,40.79H2.44a.65.65,0,0,1-.56-.7l-.13-3.45H48l-.11,3.44A.66.66,0,0,1,47.27,40.79Z"/><path class="cls-1" d="M1.75,1.46c0-.38.21-.71.51-.71H15.58a1.27,1.27,0,0,1,1.08,1.4V5.26h26.9a2.36,2.36,0,0,1,2,2.6l-.9,23.4H3L2,6.13Z"/><rect class="cls-2" x="3.11" y="6.95" width="36.08" height="21.09"/><path class="cls-1" d="M49.58,3.87A.68.68,0,0,0,49,3.08H34.17A1.42,1.42,0,0,0,33,4.65V8.11H3C1.75,8.11.75,9.41.75,11l1,26.09h46.4l1.14-28Z"/></svg>