<svg id="Layer_1" data-name="Layer 1" xmlns="http://www.w3.org/2000/svg" viewBox="0 0 30.05 30.05"><defs><style>.cls-1,.cls-3{fill:#dddede;}.cls-2{fill:#a61e38;}.cls-3{stroke:#a61e38;stroke-miterlimit:10;}</style></defs><circle class="cls-1" cx="15.03" cy="15.03" r="15.03"/><circle class="cls-2" cx="15.01" cy="15.05" r="7"/><circle class="cls-3" cx="15.01" cy="15.05" r="4.89"/><polygon class="cls-2" points="10.42 5.67 14.15 4.65 15.85 8.14 10.84 9.51 10.42 5.67"/><polygon class="cls-2" points="5.9 10.16 4.71 13.84 8.12 15.69 9.72 10.75 5.9 10.16"/><polygon class="cls-2" points="6.02 20.14 8.56 23.05 11.91 21.08 8.49 17.17 6.02 20.14"/><polygon class="cls-2" points="23.61 9.06 20.77 6.42 17.65 8.72 21.45 12.27 23.61 9.06"/><polygon class="cls-2" points="25.34 15.79 24.35 19.53 20.48 19.25 21.81 14.22 25.34 15.79"/><polygon class="cls-2" points="19.17 24.55 15.4 25.4 13.87 21.84 18.93 20.7 19.17 24.55"/></svg>